<svg xmlns="http://www.w3.org/2000/svg" viewBox="0 0 500 130" width="100%" height="100%">
  <defs>
    <!-- Beautiful Warm Golden Champagne gradient tailored to match real-world branding -->
    <linearGradient id="adevipGoldGrad" x1="0%" y1="0%" x2="100%" y2="100%">
      <stop offset="0%" stop-color="#f5e1b8" />
      <stop offset="50%" stop-color="#e2c58a" />
      <stop offset="100%" stop-color="#cdae6d" />
    </linearGradient>
  </defs>
  <g fill="url(#adevipGoldGrad)" stroke="none">
    <!-- Letter A : Stylized stencil geometric design -->
    <path d="M 32 100 L 60 30 L 74 30 L 102 100 L 86 100 L 79 84 L 55 84 L 49 100 Z M 59 71 L 75 71 L 67 50 Z" />
    
    <!-- Letter D : Clean elegant curve -->
    <path d="M 120 30 L 158 30 C 182 30 193 45 193 65 C 193 85 182 100 158 100 L 120 100 Z M 136 44 L 136 86 L 155 86 C 171 86 177 78 177 65 C 177 52 171 44 155 44 Z" />
    
    <!-- Letter E : Sleek geometric bars -->
    <path d="M 210 30 L 264 30 L 264 43 L 226 43 L 226 58 L 256 58 L 256 71 L 226 71 L 226 86 L 264 86 L 264 100 L 210 100 Z" />
    
    <!-- Letter V : High-contrast angled lines -->
    <path d="M 280 30 L 296 30 L 313 83 L 330 30 L 346 30 L 321 100 L 305 100 Z" />
    
    <!-- Letter I : Solid geometric stem -->
    <path d="M 362 30 L 378 30 L 378 100 L 362 100 Z" />
    
    <!-- Letter P : Corporate elegant loop -->
    <path d="M 394 30 L 433 30 C 448 30 455 40 455 53 C 455 66 448 76 433 76 L 410 76 L 410 100 L 394 100 Z M 410 44 L 410 62 L 429 62 C 438 62 438 44 429 44 Z" />
  </g>
</svg>
